<?xml version="1.0" encoding="UTF-8"?>
<svg id="Layer_1" data-name="Layer 1" xmlns="http://www.w3.org/2000/svg" viewBox="0 0 1937.55 1213.03">
  <defs>
    <style>
      .cls-1 {
        fill: #fff;
      }
    </style>
  </defs>
  <path class="cls-1" d="M1432.5,691.59l4.56,18.09,4.69-18.09h7.52v26.65h-4.44v-20.51l-5.2,20.35-.07.12c-.07.05-.16.04-.24.05-.87.11-3.67.11-4.53,0-.1-.01-.21,0-.28-.1l-5.23-20.42v20.51h-4.44v-26.65h7.66Z"/>
  <polygon class="cls-1" points="1420.39 691.59 1420.39 696.03 1413.73 696.03 1413.73 718.24 1409.29 718.24 1409.29 696.03 1400.4 696.03 1400.4 691.59 1420.39 691.59"/>
  <path class="cls-1" d="M760.69,429.49l.02,17.78c24.64-29.53,75.66-29.37,95.53,4.43h3.26c22.91-36.63,109.26-30.43,111.4,14.13,2.16,44.96,2.14,85.72.8,130.25h-35.54v-107.72c.12-11.3-7.43-20.94-11.27-24.27-14.07-12.19-45.51-9.7-53.67,8.19-.64,1.41-4.13,6.2-3.92,13.85v109.94h-37.76v-114.39c.35-9.31-9.5-16.86-12.16-18.93-15.58-12.16-40.8-7.65-50.09,9.99-9.12,17.31-4.5,68.51-4.29,91.22.09,10.08,1.37,19.78.48,32.12h-38.33v-166.59h35.54Z"/>
  <path class="cls-1" d="M1398.18,525h-126.61c3.99,51.03,67.98,54.92,96.62,20.12l25.5,18.75c-37.41,48.4-117.48,48.16-149.16-6.29-26.8-46.05-5.22-114.12,47.79-128.44,66.51-17.96,110.66,31.56,105.85,95.86ZM1274.9,498.34h87.75c-3.74-39.79-53.7-55.5-80.07-27.86-4.14,4.34-16.39,25.27-7.68,27.86Z"/>
  <path class="cls-1" d="M1395.96,862.62h-39.98l1.4-98.49c-1.57-31.21-26.43-43.95-55.3-38.7-10.43,1.9-26.07,19.67-26.07,29.46v107.73h-37.76v-166.59h35.54l1.13,17.79c22.74-20.56,51.61-28.24,80.8-16.43,21.2,8.58,40.24,37,40.24,59.72v105.51Z"/>
  <path class="cls-1" d="M685.17,696.03v101.07c0,1.21,3.98,15.12,4.89,17.32,11.35,27.42,53.05,26.63,68.05,2.31,1.73-2.8,7.02-15.17,7.02-17.41v-103.29h37.76v166.59h-35.54l-.02-19.99c-27.33,36.02-92.66,32.29-111.47-9.57-1.55-3.45-8.45-22.78-8.45-24.86v-112.17h37.76Z"/>
  <path class="cls-1" d="M640.7,453.84l-23.28,15.71c-13.65-12.16-38.81-20.49-54.51-7.94-31.1,24.87,40.64,37.05,53.35,42.33,27.79,11.55,39.08,34.47,28.45,63.9-14.93,41.33-109.96,41.48-130.36,2.68l25.35-20.69c12.39,19.17,56.01,29.78,68.68,8.26,15.57-26.45-46.09-32.69-61.39-40.4-39.89-20.1-34.77-76.17,7.54-88.9,25.6-7.7,75.63-4.35,86.17,25.05Z"/>
  <path class="cls-1" d="M596.32,696.03h38.87l2.79,3.23-1.68,27.86h-39.98v94.4c0,12.35,30.99,14.59,39.98,10v31.1c-25.87.95-60.98,5.91-73.71-22.91-.76-1.71-4.03-10.86-4.03-11.52v-101.07h-37.76v-31.1h37.76v-53.31h34.43l3.33,3.33v49.98Z"/>
  <path class="cls-1" d="M907.29,727.13h-35.54v-31.1h35.54v-53.34c10.26-.39,25.72-.33,37.76.03v53.31h39.98v31.1h-39.98v92.18c-.23,5.08,4.51,8.85,5.05,9.38,7.85,7.8,25.05,4.9,34.93,2.83v31.1h-47.76c-9.76,0-17.73-8.44-20.32-11.28-4.16-4.55-9.69-12.85-9.71-29.75"/>
  <rect class="cls-1" x="1182.72" y="329.53" width="35.54" height="266.55"/>
  <rect class="cls-1" x="996.14" y="696.03" width="37.76" height="166.59"/>
  <polygon class="cls-1" points="862.87 862.62 825.11 862.62 825.11 696.03 859.54 696.03 862.87 699.36 862.87 862.62"/>
  <rect class="cls-1" x="667.4" y="429.49" width="35.54" height="166.59"/>
  <path class="cls-1" d="M682.49,343.35c31.03-3.41,33.41,40.33,9.99,45.68-35,8-44.87-41.85-9.99-45.68Z"/>
  <path class="cls-1" d="M840.02,629.86c32.78-7.43,41.31,38.91,11.3,44.66-28.2,5.4-40.1-38.14-11.3-44.66Z"/>
  <path class="cls-1" d="M1033.93,447.25l-2.25-17.76h-35.54v244.33h32.21c.55,0,5.19,0,5.19,0l.36-97.73c34.2,37.8,95.72,26.99,120.32-16.29,47.56-83.68-43.11-179.69-120.29-112.55ZM1081.32,567.04c-63.85,2.22-63.13-98.34-14.71-108.17,77.01-15.64,81.42,105.86,14.71,108.17Z"/>
  <path class="cls-1" d="M1133.49,692.14c-117.39,4.33-111.01,185.61,12.55,174.9,108.73-9.43,101.99-179.12-12.55-174.9ZM1122.2,833.19c-47.67-12.05-44.91-99.34,4.41-107.74,79.75-13.59,79.05,128.84-4.41,107.74Z"/>
</svg>